<mxfile host="app.diagrams.net" modified="2023-06-06T20:22:48.158Z" agent="Mozilla/5.0 (X11; Ubuntu; Linux x86_64; rv:109.0) Gecko/20100101 Firefox/113.0" etag="4uHfY51mh6BFkfZlraoO" version="21.3.7" type="github">
  <diagram name="Page-1" id="XDrPPoIQ89w2JLV2kDCQ">
    <mxGraphModel dx="1046" dy="483" grid="1" gridSize="10" guides="1" tooltips="1" connect="1" arrows="1" fold="1" page="1" pageScale="1" pageWidth="850" pageHeight="1100" math="0" shadow="0">
      <root>
        <mxCell id="0" />
        <mxCell id="1" parent="0" />
        <mxCell id="3PMkRIvV6VI9b00buIb--1" value="Guest" style="shape=umlActor;verticalLabelPosition=bottom;verticalAlign=top;html=1;outlineConnect=0;" vertex="1" parent="1">
          <mxGeometry x="10" y="380" width="30" height="60" as="geometry" />
        </mxCell>
        <mxCell id="3PMkRIvV6VI9b00buIb--2" value="&amp;nbsp;" style="whiteSpace=wrap;html=1;aspect=fixed;" vertex="1" parent="1">
          <mxGeometry x="80" y="40" width="510" height="510" as="geometry" />
        </mxCell>
        <mxCell id="3PMkRIvV6VI9b00buIb--3" value="Seller" style="shape=umlActor;verticalLabelPosition=bottom;verticalAlign=top;html=1;outlineConnect=0;" vertex="1" parent="1">
          <mxGeometry x="630" y="175" width="30" height="60" as="geometry" />
        </mxCell>
        <mxCell id="3PMkRIvV6VI9b00buIb--4" value="" style="ellipse;whiteSpace=wrap;html=1;" vertex="1" parent="1">
          <mxGeometry x="245" y="200" width="110" height="40" as="geometry" />
        </mxCell>
        <mxCell id="3PMkRIvV6VI9b00buIb--6" value="Login" style="text;strokeColor=none;align=center;fillColor=none;html=1;verticalAlign=middle;whiteSpace=wrap;rounded=0;" vertex="1" parent="1">
          <mxGeometry x="270" y="205" width="60" height="30" as="geometry" />
        </mxCell>
        <mxCell id="3PMkRIvV6VI9b00buIb--8" value="" style="ellipse;whiteSpace=wrap;html=1;" vertex="1" parent="1">
          <mxGeometry x="245" y="420" width="110" height="40" as="geometry" />
        </mxCell>
        <mxCell id="3PMkRIvV6VI9b00buIb--9" value="Register" style="text;strokeColor=none;align=center;fillColor=none;html=1;verticalAlign=middle;whiteSpace=wrap;rounded=0;" vertex="1" parent="1">
          <mxGeometry x="270" y="425" width="60" height="30" as="geometry" />
        </mxCell>
        <mxCell id="3PMkRIvV6VI9b00buIb--21" value="&lt;div&gt;User&lt;br&gt;&lt;/div&gt;" style="shape=umlActor;verticalLabelPosition=bottom;verticalAlign=top;html=1;outlineConnect=0;" vertex="1" parent="1">
          <mxGeometry x="10" y="250" width="30" height="60" as="geometry" />
        </mxCell>
        <mxCell id="3PMkRIvV6VI9b00buIb--22" value="Admin" style="shape=umlActor;verticalLabelPosition=bottom;verticalAlign=top;html=1;outlineConnect=0;" vertex="1" parent="1">
          <mxGeometry x="620" y="460" width="30" height="60" as="geometry" />
        </mxCell>
        <mxCell id="3PMkRIvV6VI9b00buIb--25" value="" style="endArrow=none;html=1;rounded=0;exitX=0;exitY=1;exitDx=0;exitDy=0;" edge="1" parent="1" source="3PMkRIvV6VI9b00buIb--4" target="3PMkRIvV6VI9b00buIb--21">
          <mxGeometry width="50" height="50" relative="1" as="geometry">
            <mxPoint x="270" y="480" as="sourcePoint" />
            <mxPoint x="24" y="364" as="targetPoint" />
            <Array as="points" />
          </mxGeometry>
        </mxCell>
        <mxCell id="3PMkRIvV6VI9b00buIb--26" value="" style="endArrow=none;html=1;rounded=0;entryX=1;entryY=1;entryDx=0;entryDy=0;" edge="1" parent="1" source="3PMkRIvV6VI9b00buIb--22" target="3PMkRIvV6VI9b00buIb--4">
          <mxGeometry width="50" height="50" relative="1" as="geometry">
            <mxPoint x="606" y="501" as="sourcePoint" />
            <mxPoint x="360" y="385" as="targetPoint" />
          </mxGeometry>
        </mxCell>
        <mxCell id="3PMkRIvV6VI9b00buIb--27" value="" style="endArrow=none;html=1;rounded=0;entryX=1;entryY=0;entryDx=0;entryDy=0;" edge="1" parent="1" source="3PMkRIvV6VI9b00buIb--3" target="3PMkRIvV6VI9b00buIb--4">
          <mxGeometry width="50" height="50" relative="1" as="geometry">
            <mxPoint x="560" y="260" as="sourcePoint" />
            <mxPoint x="339" y="273" as="targetPoint" />
          </mxGeometry>
        </mxCell>
        <mxCell id="3PMkRIvV6VI9b00buIb--67" style="edgeStyle=orthogonalEdgeStyle;rounded=0;orthogonalLoop=1;jettySize=auto;html=1;exitX=1;exitY=0;exitDx=0;exitDy=0;entryX=0.888;entryY=0.033;entryDx=0;entryDy=0;entryPerimeter=0;" edge="1" parent="1" source="3PMkRIvV6VI9b00buIb--32" target="3PMkRIvV6VI9b00buIb--33">
          <mxGeometry relative="1" as="geometry" />
        </mxCell>
        <mxCell id="3PMkRIvV6VI9b00buIb--32" value="" style="ellipse;whiteSpace=wrap;html=1;" vertex="1" parent="1">
          <mxGeometry x="85" y="420" width="110" height="40" as="geometry" />
        </mxCell>
        <mxCell id="3PMkRIvV6VI9b00buIb--33" value="Validasi Data" style="text;strokeColor=none;fillColor=none;align=left;verticalAlign=middle;spacingLeft=4;spacingRight=4;overflow=hidden;points=[[0,0.5],[1,0.5]];portConstraint=eastwest;rotatable=0;whiteSpace=wrap;html=1;" vertex="1" parent="1">
          <mxGeometry x="95" y="425" width="80" height="30" as="geometry" />
        </mxCell>
        <mxCell id="3PMkRIvV6VI9b00buIb--38" value="" style="ellipse;whiteSpace=wrap;html=1;" vertex="1" parent="1">
          <mxGeometry x="110" y="360" width="110" height="40" as="geometry" />
        </mxCell>
        <mxCell id="3PMkRIvV6VI9b00buIb--39" value="Choose a Product" style="text;strokeColor=none;fillColor=none;align=left;verticalAlign=middle;spacingLeft=4;spacingRight=4;overflow=hidden;points=[[0,0.5],[1,0.5]];portConstraint=eastwest;rotatable=0;whiteSpace=wrap;html=1;" vertex="1" parent="1">
          <mxGeometry x="130" y="365" width="80" height="30" as="geometry" />
        </mxCell>
        <mxCell id="3PMkRIvV6VI9b00buIb--44" value="" style="ellipse;whiteSpace=wrap;html=1;" vertex="1" parent="1">
          <mxGeometry x="90" y="125" width="110" height="40" as="geometry" />
        </mxCell>
        <mxCell id="3PMkRIvV6VI9b00buIb--46" value="" style="ellipse;whiteSpace=wrap;html=1;" vertex="1" parent="1">
          <mxGeometry x="90" y="60" width="110" height="40" as="geometry" />
        </mxCell>
        <mxCell id="3PMkRIvV6VI9b00buIb--48" value="Save Address" style="text;strokeColor=none;fillColor=none;align=left;verticalAlign=middle;spacingLeft=4;spacingRight=4;overflow=hidden;points=[[0,0.5],[1,0.5]];portConstraint=eastwest;rotatable=0;whiteSpace=wrap;html=1;" vertex="1" parent="1">
          <mxGeometry x="120" y="65" width="80" height="30" as="geometry" />
        </mxCell>
        <mxCell id="3PMkRIvV6VI9b00buIb--51" value="" style="endArrow=none;html=1;rounded=0;exitX=0.091;exitY=0.825;exitDx=0;exitDy=0;exitPerimeter=0;" edge="1" parent="1" source="3PMkRIvV6VI9b00buIb--38" target="3PMkRIvV6VI9b00buIb--1">
          <mxGeometry width="50" height="50" relative="1" as="geometry">
            <mxPoint x="275.5" y="271" as="sourcePoint" />
            <mxPoint x="54.5" y="380" as="targetPoint" />
          </mxGeometry>
        </mxCell>
        <mxCell id="3PMkRIvV6VI9b00buIb--53" value="" style="endArrow=none;html=1;rounded=0;exitX=0.055;exitY=0.275;exitDx=0;exitDy=0;exitPerimeter=0;" edge="1" parent="1" source="3PMkRIvV6VI9b00buIb--38" target="3PMkRIvV6VI9b00buIb--21">
          <mxGeometry width="50" height="50" relative="1" as="geometry">
            <mxPoint x="271" y="244" as="sourcePoint" />
            <mxPoint x="50" y="245" as="targetPoint" />
            <Array as="points" />
          </mxGeometry>
        </mxCell>
        <mxCell id="3PMkRIvV6VI9b00buIb--45" value="" style="ellipse;whiteSpace=wrap;html=1;" vertex="1" parent="1">
          <mxGeometry x="90" y="185" width="110" height="40" as="geometry" />
        </mxCell>
        <mxCell id="3PMkRIvV6VI9b00buIb--40" value="Add to Cart" style="text;strokeColor=none;fillColor=none;align=left;verticalAlign=middle;spacingLeft=4;spacingRight=4;overflow=hidden;points=[[0,0.5],[1,0.5]];portConstraint=eastwest;rotatable=0;whiteSpace=wrap;html=1;" vertex="1" parent="1">
          <mxGeometry x="110" y="190" width="80" height="30" as="geometry" />
        </mxCell>
        <mxCell id="3PMkRIvV6VI9b00buIb--54" value="" style="endArrow=none;html=1;rounded=0;exitX=0.264;exitY=0.975;exitDx=0;exitDy=0;exitPerimeter=0;" edge="1" parent="1" source="3PMkRIvV6VI9b00buIb--45" target="3PMkRIvV6VI9b00buIb--21">
          <mxGeometry width="50" height="50" relative="1" as="geometry">
            <mxPoint x="271" y="244" as="sourcePoint" />
            <mxPoint x="50" y="287" as="targetPoint" />
            <Array as="points" />
          </mxGeometry>
        </mxCell>
        <mxCell id="3PMkRIvV6VI9b00buIb--55" value="Checkout" style="text;strokeColor=none;fillColor=none;align=left;verticalAlign=middle;spacingLeft=4;spacingRight=4;overflow=hidden;points=[[0,0.5],[1,0.5]];portConstraint=eastwest;rotatable=0;whiteSpace=wrap;html=1;" vertex="1" parent="1">
          <mxGeometry x="115" y="130" width="80" height="30" as="geometry" />
        </mxCell>
        <mxCell id="3PMkRIvV6VI9b00buIb--41" value="" style="ellipse;whiteSpace=wrap;html=1;" vertex="1" parent="1">
          <mxGeometry x="240" y="60" width="110" height="40" as="geometry" />
        </mxCell>
        <mxCell id="3PMkRIvV6VI9b00buIb--42" value="Checkout Detail" style="text;strokeColor=none;fillColor=none;align=left;verticalAlign=middle;spacingLeft=4;spacingRight=4;overflow=hidden;points=[[0,0.5],[1,0.5]];portConstraint=eastwest;rotatable=0;whiteSpace=wrap;html=1;" vertex="1" parent="1">
          <mxGeometry x="245" y="65" width="110" height="30" as="geometry" />
        </mxCell>
        <mxCell id="3PMkRIvV6VI9b00buIb--47" value="" style="ellipse;whiteSpace=wrap;html=1;" vertex="1" parent="1">
          <mxGeometry x="240" y="125" width="110" height="40" as="geometry" />
        </mxCell>
        <mxCell id="3PMkRIvV6VI9b00buIb--56" value="Payment" style="text;strokeColor=none;fillColor=none;align=left;verticalAlign=middle;spacingLeft=4;spacingRight=4;overflow=hidden;points=[[0,0.5],[1,0.5]];portConstraint=eastwest;rotatable=0;whiteSpace=wrap;html=1;" vertex="1" parent="1">
          <mxGeometry x="260" y="130" width="80" height="30" as="geometry" />
        </mxCell>
        <mxCell id="3PMkRIvV6VI9b00buIb--58" value="" style="ellipse;whiteSpace=wrap;html=1;" vertex="1" parent="1">
          <mxGeometry x="95" y="275" width="110" height="40" as="geometry" />
        </mxCell>
        <mxCell id="3PMkRIvV6VI9b00buIb--57" value="Profile" style="text;strokeColor=none;fillColor=none;align=left;verticalAlign=middle;spacingLeft=4;spacingRight=4;overflow=hidden;points=[[0,0.5],[1,0.5]];portConstraint=eastwest;rotatable=0;whiteSpace=wrap;html=1;" vertex="1" parent="1">
          <mxGeometry x="130" y="280" width="80" height="30" as="geometry" />
        </mxCell>
        <mxCell id="3PMkRIvV6VI9b00buIb--60" value="" style="endArrow=none;html=1;rounded=0;exitX=0.255;exitY=0.925;exitDx=0;exitDy=0;exitPerimeter=0;" edge="1" parent="1" source="3PMkRIvV6VI9b00buIb--58" target="3PMkRIvV6VI9b00buIb--21">
          <mxGeometry width="50" height="50" relative="1" as="geometry">
            <mxPoint x="116" y="360" as="sourcePoint" />
            <mxPoint x="40" y="284" as="targetPoint" />
            <Array as="points" />
          </mxGeometry>
        </mxCell>
        <mxCell id="3PMkRIvV6VI9b00buIb--62" value="&amp;lt;&amp;lt;Include&amp;gt;&amp;gt;" style="endArrow=open;endSize=12;dashed=1;html=1;rounded=0;entryX=0;entryY=1;entryDx=0;entryDy=0;exitX=0.838;exitY=0.067;exitDx=0;exitDy=0;exitPerimeter=0;" edge="1" parent="1" source="3PMkRIvV6VI9b00buIb--57" target="3PMkRIvV6VI9b00buIb--6">
          <mxGeometry width="160" relative="1" as="geometry">
            <mxPoint x="330" y="260" as="sourcePoint" />
            <mxPoint x="490" y="260" as="targetPoint" />
            <Array as="points" />
          </mxGeometry>
        </mxCell>
        <mxCell id="3PMkRIvV6VI9b00buIb--64" value="&amp;lt;&amp;lt;Include&amp;gt;&amp;gt;" style="endArrow=open;endSize=12;dashed=1;html=1;rounded=0;entryX=0.5;entryY=0;entryDx=0;entryDy=0;exitX=0.5;exitY=1;exitDx=0;exitDy=0;" edge="1" parent="1" source="3PMkRIvV6VI9b00buIb--47" target="3PMkRIvV6VI9b00buIb--6">
          <mxGeometry width="160" relative="1" as="geometry">
            <mxPoint x="340" y="157" as="sourcePoint" />
            <mxPoint x="413" y="110" as="targetPoint" />
            <Array as="points" />
          </mxGeometry>
        </mxCell>
        <mxCell id="3PMkRIvV6VI9b00buIb--65" value="&amp;lt;&amp;lt;Include&amp;gt;&amp;gt;" style="endArrow=open;endSize=12;dashed=1;html=1;rounded=0;entryX=0;entryY=1;entryDx=0;entryDy=0;exitX=0.838;exitY=0.067;exitDx=0;exitDy=0;exitPerimeter=0;" edge="1" parent="1">
          <mxGeometry width="160" relative="1" as="geometry">
            <mxPoint x="207" y="292" as="sourcePoint" />
            <mxPoint x="280" y="245" as="targetPoint" />
            <Array as="points" />
          </mxGeometry>
        </mxCell>
        <mxCell id="3PMkRIvV6VI9b00buIb--66" value="&amp;lt;&amp;lt;Include&amp;gt;&amp;gt;" style="endArrow=open;endSize=12;dashed=1;html=1;rounded=0;exitX=0.5;exitY=1;exitDx=0;exitDy=0;entryX=0.5;entryY=0;entryDx=0;entryDy=0;" edge="1" parent="1" source="3PMkRIvV6VI9b00buIb--6" target="3PMkRIvV6VI9b00buIb--8">
          <mxGeometry width="160" relative="1" as="geometry">
            <mxPoint x="217" y="302" as="sourcePoint" />
            <mxPoint x="290" y="255" as="targetPoint" />
            <Array as="points" />
          </mxGeometry>
        </mxCell>
        <mxCell id="3PMkRIvV6VI9b00buIb--68" value="&amp;lt;&amp;lt;Include&amp;gt;&amp;gt;" style="endArrow=open;endSize=12;dashed=1;html=1;rounded=0;exitX=0;exitY=0.5;exitDx=0;exitDy=0;entryX=1;entryY=0.5;entryDx=0;entryDy=0;" edge="1" parent="1" source="3PMkRIvV6VI9b00buIb--8" target="3PMkRIvV6VI9b00buIb--32">
          <mxGeometry width="160" relative="1" as="geometry">
            <mxPoint x="310" y="245" as="sourcePoint" />
            <mxPoint x="310" y="430" as="targetPoint" />
            <Array as="points" />
          </mxGeometry>
        </mxCell>
        <mxCell id="3PMkRIvV6VI9b00buIb--70" value="&amp;lt;&amp;lt;Include&amp;gt;&amp;gt;" style="endArrow=open;endSize=12;dashed=1;html=1;rounded=0;entryX=0.5;entryY=1;entryDx=0;entryDy=0;exitX=0.475;exitY=0.1;exitDx=0;exitDy=0;exitPerimeter=0;" edge="1" parent="1" source="3PMkRIvV6VI9b00buIb--40" target="3PMkRIvV6VI9b00buIb--44">
          <mxGeometry width="160" relative="1" as="geometry">
            <mxPoint x="275" y="175" as="sourcePoint" />
            <mxPoint x="310" y="215" as="targetPoint" />
            <Array as="points" />
          </mxGeometry>
        </mxCell>
        <mxCell id="3PMkRIvV6VI9b00buIb--71" value="&amp;lt;&amp;lt;Include&amp;gt;&amp;gt;" style="endArrow=open;endSize=12;dashed=1;html=1;rounded=0;entryX=0.325;entryY=1.2;entryDx=0;entryDy=0;exitX=0.263;exitY=-0.067;exitDx=0;exitDy=0;exitPerimeter=0;entryPerimeter=0;" edge="1" parent="1" source="3PMkRIvV6VI9b00buIb--55" target="3PMkRIvV6VI9b00buIb--48">
          <mxGeometry width="160" relative="1" as="geometry">
            <mxPoint x="158" y="203" as="sourcePoint" />
            <mxPoint x="155" y="175" as="targetPoint" />
            <Array as="points" />
          </mxGeometry>
        </mxCell>
        <mxCell id="3PMkRIvV6VI9b00buIb--78" value="&amp;lt;&amp;lt;Include&amp;gt;&amp;gt;" style="endArrow=open;endSize=12;dashed=1;html=1;rounded=0;exitX=0.4;exitY=1.033;exitDx=0;exitDy=0;entryX=0.463;entryY=-0.067;entryDx=0;entryDy=0;exitPerimeter=0;entryPerimeter=0;" edge="1" parent="1" source="3PMkRIvV6VI9b00buIb--42" target="3PMkRIvV6VI9b00buIb--56">
          <mxGeometry width="160" relative="1" as="geometry">
            <mxPoint x="255" y="450" as="sourcePoint" />
            <mxPoint x="205" y="450" as="targetPoint" />
            <Array as="points" />
          </mxGeometry>
        </mxCell>
        <mxCell id="3PMkRIvV6VI9b00buIb--80" value="&amp;lt;&amp;lt;Include&amp;gt;&amp;gt;" style="endArrow=open;endSize=12;dashed=1;html=1;rounded=0;exitX=1;exitY=0.5;exitDx=0;exitDy=0;entryX=-0.055;entryY=0.533;entryDx=0;entryDy=0;entryPerimeter=0;" edge="1" parent="1" source="3PMkRIvV6VI9b00buIb--48" target="3PMkRIvV6VI9b00buIb--42">
          <mxGeometry width="160" relative="1" as="geometry">
            <mxPoint x="299" y="106" as="sourcePoint" />
            <mxPoint x="307" y="138" as="targetPoint" />
            <Array as="points" />
          </mxGeometry>
        </mxCell>
      </root>
    </mxGraphModel>
  </diagram>
</mxfile>
